<svg width="13" height="13" viewBox="0 0 13 13" fill="none" xmlns="http://www.w3.org/2000/svg">
<mask id="mask0_2281_4042" style="mask-type:alpha" maskUnits="userSpaceOnUse" x="0" y="0" width="13" height="13">
<path d="M10.4654 12.3157C10.3638 12.3157 10.263 12.2856 10.1764 12.2269L6.90774 10.0097L5.15458 11.2712C5.01708 11.3701 4.83986 11.395 4.6802 11.3379C4.52075 11.2807 4.39965 11.1486 4.35642 10.9848L3.47614 7.64878L0.330787 6.44609C0.132775 6.37035 0.00145281 6.18091 1.19732e-05 5.9689C-0.00142887 5.75689 0.127286 5.56567 0.324338 5.48725L12.2841 0.728367C12.3384 0.705313 12.3958 0.692003 12.4537 0.688435C12.4744 0.6872 12.4952 0.6872 12.5159 0.688366C12.6358 0.695502 12.7536 0.744353 12.8456 0.834509C12.8551 0.84384 12.8642 0.853377 12.8727 0.863325C12.9489 0.950325 12.9907 1.0564 12.9986 1.16446C13.0006 1.19163 13.0004 1.21914 12.998 1.24666C12.9964 1.26628 12.9936 1.28583 12.9896 1.30525L10.9708 11.8974C10.9384 12.0676 10.8226 12.21 10.6626 12.2763C10.5991 12.3027 10.5321 12.3157 10.4654 12.3157ZM7.19474 8.96077L10.1064 10.9357L11.6772 2.69388L6.00392 8.15301L7.18101 8.95151C7.18575 8.95446 7.19028 8.95761 7.19474 8.96077ZM4.7709 8.52159L5.16075 9.99879L6.00069 9.39439L4.90085 8.64831C4.84974 8.61373 4.80596 8.57065 4.7709 8.52159ZM1.93046 5.9558L4.09021 6.78154C4.24493 6.84068 4.3617 6.97077 4.40397 7.1309L4.67787 8.16893C4.69042 8.0492 4.74469 7.93654 4.83286 7.85167L10.2387 2.64997L1.93046 5.9558Z" fill="black"/>
</mask>
<g mask="url(#mask0_2281_4042)">
<rect x="-2" y="-3" width="16" height="17" fill="#383838"/>
</g>
</svg>
